<?xml version="1.0" encoding="utf-8"?>
<!-- Generator: Adobe Illustrator 22.1.0, SVG Export Plug-In . SVG Version: 6.00 Build 0)  -->
<svg version="1.1" id="Layer_1" xmlns="http://www.w3.org/2000/svg" xmlns:xlink="http://www.w3.org/1999/xlink" x="0px" y="0px"
	 viewBox="0 0 1366 768" style="enable-background:new 0 0 1366 768;" xml:space="preserve">
<style type="text/css">
	.st0{fill:#FDFFF8;}
</style>
<g>
	<g>
		<path class="st0" d="M498.6,218.8c1.6,1.8,2.5,3.9,2.5,6.3v313.4c0,2.4-0.9,4.5-2.7,6.3c-1.8,1.8-3.9,2.7-6.3,2.7
			c-2.7,0-4.9-0.9-6.5-2.7s-2.5-3.9-2.5-6.3V496c-7.2,15.8-18.5,29.1-34,39.8s-32.8,16.1-51.9,16.1c-19.4,0-37-5.1-52.8-15.4
			c-15.8-10.3-28.3-24.4-37.4-42.3c-9.1-17.9-13.7-37.9-13.7-60s4.5-42.1,13.7-60c9.1-17.9,21.6-31.9,37.4-42.1
			c15.8-10.1,33.4-15.2,52.8-15.2c18.5,0,35.7,5.2,51.5,15.7s27.3,24,34.5,40.7V225.1c0-2.4,0.8-4.5,2.5-6.3
			c1.6-1.8,3.8-2.7,6.5-2.7C494.8,216.1,496.9,217,498.6,218.8z M442.8,521.9c13.1-8.7,23.4-20.7,30.9-36
			c7.5-15.4,11.2-32.6,11.2-51.7s-3.7-36.3-11.2-51.5s-17.8-27.2-31.1-35.8c-13.3-8.7-28.1-13-44.5-13c-16.1,0-30.8,4.3-44.1,13
			c-13.3,8.7-23.7,20.7-31.3,36c-7.6,15.4-11.4,32.5-11.4,51.3c0,19.1,3.8,36.3,11.4,51.5s18,27.2,31.1,36s27.9,13.2,44.3,13.2
			C414.8,534.9,429.7,530.6,442.8,521.9z"/>
		<path class="st0" d="M652.3,327.1c0,2.7-0.7,4.9-2.2,6.7c-1.5,1.8-3.4,2.7-5.8,2.7c-0.9,0-3.1-0.7-6.5-2s-7.1-2-11-2
			c-12.2,0-24.5,4.9-36.7,14.5c-12.2,9.7-22.2,21.9-30,36.7c-7.8,14.8-11.6,29-11.6,42.8v111.9c0,2.4-0.9,4.5-2.7,6.3
			s-3.9,2.7-6.3,2.7c-2.7,0-4.9-0.9-6.5-2.7s-2.5-3.9-2.5-6.3V333c0-2.4,0.9-4.5,2.7-6.3s3.9-2.7,6.3-2.7c2.7,0,4.8,0.9,6.5,2.7
			c1.6,1.8,2.5,3.9,2.5,6.3v47.5c6.9-18.2,17.5-33.3,32-45.2c14.5-11.9,31.6-18.1,51.3-18.4C645.4,316.8,652.3,320.3,652.3,327.1z"
			/>
		<path class="st0" d="M1070,544.7c-1.8,1.8-3.9,2.7-6.3,2.7c-2.7,0-4.9-0.9-6.5-2.7s-2.5-3.9-2.5-6.3V225.1c0-2.4,0.9-4.5,2.7-6.3
			c1.8-1.8,3.9-2.7,6.3-2.7c2.7,0,4.8,0.9,6.5,2.7c1.6,1.8,2.5,3.9,2.5,6.3v313.4C1072.7,540.9,1071.8,542.9,1070,544.7z"/>
	</g>
	<g>
		<path class="st0" d="M834.6,332.1c1.5-2.1,2.2-4.2,2.2-6.3c-0.3-2.4-1.3-4.5-2.9-6.3c-1.6-1.8-3.7-2.7-6-2.7h-137
			c-2.4,0-4.5,0.8-6.3,2.5c-1.8,1.6-2.7,3.7-2.7,6c0,2.4,0.9,4.4,2.7,6s3.9,2.5,6.3,2.5h18.6l124-0.1L834.6,332.1z"/>
		<g>
			<path class="st0" d="M1020.7,332.1c1.5-2.1,2.2-4.2,2.2-6.3c-0.3-2.4-1.3-4.5-2.9-6.3c-1.6-1.8-3.7-2.7-6-2.7H877
				c-2.4,0-4.5,0.8-6.3,2.5c-1.8,1.6-2.7,3.7-2.7,6c0,2.4,0.9,4.4,2.7,6c1.3,1.2,2.8,2,4.4,2.3l144.6-0.2L1020.7,332.1z"/>
		</g>
	</g>
	<g>
		<polygon class="st0" points="994.8,368.4 973.3,368.4 964.4,380.9 985.9,380.9 		"/>
	</g>
	<g>
		<polygon class="st0" points="973.4,398.3 952,398.3 939.5,415.8 961,415.8 		"/>
	</g>
	<polygon class="st0" points="948.5,433.2 927.1,433.2 870.3,513.1 891.6,513 	"/>
	<path class="st0" d="M1015.8,533.1c-1.8-1.8-3.9-2.7-6.3-2.7h-52v0.1h-99.6l-1.6,2.2c-1.5,2.1-2.2,4-2.2,5.8s0.9,3.7,2.7,5.8
		s4,3.1,6.7,3.1h146c2.4,0,4.5-0.8,6.3-2.5c1.8-1.6,2.7-3.7,2.7-6C1018.4,536.8,1017.5,534.9,1015.8,533.1z"/>
	<g>
		<path class="st0" d="M670.2,532.6c-1.5,2.1-2.2,4-2.2,5.8s0.9,3.7,2.7,5.8s4,3.1,6.7,3.1h146c2.4,0,4.5-0.8,6.3-2.5
			c1.8-1.6,2.7-3.7,2.7-6c0-2.1-0.9-4-2.7-5.8c-1.6-1.6-3.6-2.5-5.7-2.6H671.8L670.2,532.6z"/>
		<g>
			<g>
				<polygon class="st0" points="753.3,415.9 774.8,415.9 787.3,398.3 765.8,398.3 				"/>
				<polygon class="st0" points="808.6,368.4 787.1,368.4 778.2,381 799.7,381 				"/>
			</g>
			<polygon class="st0" points="684.1,513.2 705.4,513.1 762.4,433.2 741,433.2 			"/>
		</g>
	</g>
</g>
</svg>
